<svg width="20" height="20" viewBox="0 0 20 20" fill="none" xmlns="http://www.w3.org/2000/svg">
<path d="M7.49996 18.3332H12.5C16.6666 18.3332 18.3333 16.6665 18.3333 12.4998V7.49984C18.3333 3.33317 16.6666 1.6665 12.5 1.6665H7.49996C3.33329 1.6665 1.66663 3.33317 1.66663 7.49984V12.4998C1.66663 16.6665 3.33329 18.3332 7.49996 18.3332Z" stroke="#051238" stroke-width="1.5" stroke-linecap="round" stroke-linejoin="round"/>
<path d="M10 12.9168C11.6109 12.9168 12.9167 11.611 12.9167 10.0002C12.9167 8.38933 11.6109 7.0835 10 7.0835C8.38921 7.0835 7.08337 8.38933 7.08337 10.0002C7.08337 11.611 8.38921 12.9168 10 12.9168Z" stroke="#051238" stroke-width="1.5" stroke-linecap="round" stroke-linejoin="round"/>
<path d="M14.6967 5.83317H14.7064" stroke="#051238" stroke-width="1.5" stroke-linecap="round" stroke-linejoin="round"/>
</svg>
