<svg width="36" height="36" viewBox="0 0 36 36" fill="none" xmlns="http://www.w3.org/2000/svg">
<g id="vuesax/bold/lamp-on">
<g id="lamp-on">
<path id="Vector" d="M28.8131 9.54221C27.2531 6.39221 24.2381 4.06721 20.7431 3.30221C17.0831 2.49221 13.3331 3.36221 10.4681 5.67221C7.58812 7.96721 5.95312 11.4022 5.95312 15.0772C5.95312 18.9622 8.27813 23.0272 11.7881 25.3822V26.6272C11.7731 27.0472 11.7581 27.6922 12.2681 28.2172C12.7931 28.7572 13.5731 28.8172 14.1881 28.8172H21.8831C22.6931 28.8172 23.3081 28.5922 23.7281 28.1722C24.2981 27.5872 24.2831 26.8372 24.2681 26.4322V25.3822C28.9181 22.2472 31.8431 15.6322 28.8131 9.54221Z" fill="#051238"/>
<path id="Vector_2" d="M22.8946 32.9977C22.8046 32.9977 22.6996 32.9827 22.6096 32.9527C19.5946 32.0977 16.4296 32.0977 13.4146 32.9527C12.8596 33.1027 12.2746 32.7877 12.1246 32.2327C11.9596 31.6777 12.2896 31.0927 12.8446 30.9427C16.2346 29.9827 19.8046 29.9827 23.1946 30.9427C23.7496 31.1077 24.0796 31.6777 23.9146 32.2327C23.7646 32.6977 23.3446 32.9977 22.8946 32.9977Z" fill="#051238"/>
</g>
</g>
</svg>
