<svg width="36" height="36" viewBox="0 0 36 36" fill="none" xmlns="http://www.w3.org/2000/svg">
<g id="vuesax/bold/people">
<g id="people">
<path id="Vector" d="M26.2936 11.655C26.1886 11.64 26.0836 11.64 25.9786 11.655C23.6536 11.58 21.8086 9.675 21.8086 7.335C21.8086 4.95 23.7436 3 26.1436 3C28.5286 3 30.4786 4.935 30.4786 7.335C30.4636 9.675 28.6186 11.58 26.2936 11.655Z" fill="#051238"/>
<path id="Vector_2" d="M31.1873 22.0506C29.5073 23.1756 27.1523 23.5956 24.9773 23.3106C25.5473 22.0806 25.8473 20.7156 25.8623 19.2756C25.8623 17.7756 25.5323 16.3506 24.9023 15.1056C27.1223 14.8056 29.4773 15.2256 31.1723 16.3506C33.5423 17.9106 33.5423 20.4756 31.1873 22.0506Z" fill="#051238"/>
<path id="Vector_3" d="M9.65438 11.655C9.75938 11.64 9.86438 11.64 9.96938 11.655C12.2944 11.58 14.1394 9.675 14.1394 7.335C14.1394 4.935 12.2044 3 9.80437 3C7.41937 3 5.48438 4.935 5.48438 7.335C5.48438 9.675 7.32938 11.58 9.65438 11.655Z" fill="#051238"/>
<path id="Vector_4" d="M9.8325 19.2759C9.8325 20.7309 10.1475 22.1109 10.7175 23.3559C8.6025 23.5809 6.3975 23.1309 4.7775 22.0659C2.4075 20.4909 2.4075 17.9259 4.7775 16.3509C6.3825 15.2709 8.6475 14.8359 10.7775 15.0759C10.1625 16.3359 9.8325 17.7609 9.8325 19.2759Z" fill="#051238"/>
<path id="Vector_5" d="M18.1753 23.805C18.0553 23.79 17.9203 23.79 17.7853 23.805C15.0253 23.715 12.8203 21.45 12.8203 18.66C12.8353 15.81 15.1303 13.5 17.9953 13.5C20.8453 13.5 23.1553 15.81 23.1553 18.66C23.1403 21.45 20.9503 23.715 18.1753 23.805Z" fill="#051238"/>
<path id="Vector_6" d="M13.3003 26.9109C11.0353 28.4259 11.0353 30.9159 13.3003 32.4159C15.8803 34.1409 20.1103 34.1409 22.6903 32.4159C24.9553 30.9009 24.9553 28.4109 22.6903 26.9109C20.1253 25.1859 15.8953 25.1859 13.3003 26.9109Z" fill="#051238"/>
</g>
</g>
</svg>
