<svg width="20" height="20" viewBox="0 0 20 20" fill="none" xmlns="http://www.w3.org/2000/svg">
<path d="M18.3083 15.2753C18.3083 15.5753 18.2417 15.8837 18.1 16.1837C17.9583 16.4837 17.775 16.767 17.5333 17.0337C17.125 17.4837 16.675 17.8087 16.1667 18.017C15.6667 18.2253 15.125 18.3337 14.5417 18.3337C13.6917 18.3337 12.7833 18.1337 11.825 17.7253C10.8667 17.317 9.90834 16.767 8.95834 16.0753C8.00001 15.3753 7.09167 14.6003 6.22501 13.742C5.36667 12.8753 4.59167 11.967 3.90001 11.017C3.21667 10.067 2.66667 9.11699 2.26667 8.17533C1.86667 7.22533 1.66667 6.31699 1.66667 5.45033C1.66667 4.88366 1.76667 4.34199 1.96667 3.84199C2.16667 3.33366 2.48334 2.86699 2.92501 2.45033C3.45834 1.92533 4.04167 1.66699 4.65834 1.66699C4.89167 1.66699 5.12501 1.71699 5.33334 1.81699C5.55001 1.91699 5.74167 2.06699 5.89167 2.28366L7.82501 5.00866C7.97501 5.21699 8.08334 5.40866 8.15834 5.59199C8.23334 5.76699 8.27501 5.94199 8.27501 6.10033C8.27501 6.30033 8.21667 6.50033 8.10001 6.69199C7.99167 6.88366 7.83334 7.08366 7.63334 7.28366L7.00001 7.94199C6.90834 8.03366 6.86667 8.14199 6.86667 8.27533C6.86667 8.34199 6.87501 8.40033 6.89167 8.46699C6.91667 8.53366 6.94167 8.58366 6.95834 8.63366C7.10834 8.90866 7.36667 9.26699 7.73334 9.70033C8.10834 10.1337 8.50834 10.5753 8.94167 11.017C9.39167 11.4587 9.82501 11.867 10.2667 12.242C10.7 12.6087 11.0583 12.8587 11.3417 13.0087C11.3833 13.0253 11.4333 13.0503 11.4917 13.0753C11.5583 13.1003 11.625 13.1087 11.7 13.1087C11.8417 13.1087 11.95 13.0587 12.0417 12.967L12.675 12.342C12.8833 12.1337 13.0833 11.9753 13.275 11.8753C13.4667 11.7587 13.6583 11.7003 13.8667 11.7003C14.025 11.7003 14.1917 11.7337 14.375 11.8087C14.5583 11.8837 14.75 11.992 14.9583 12.1337L17.7167 14.092C17.9333 14.242 18.0833 14.417 18.175 14.6253C18.2583 14.8337 18.3083 15.042 18.3083 15.2753Z" fill="#051238"/>
</svg>
