<svg width="28" height="29" viewBox="0 0 28 29" fill="none" xmlns="http://www.w3.org/2000/svg">
<path d="M3.45833 26.4163C2.74792 26.4163 2.13976 26.1634 1.63385 25.6575C1.12795 25.1516 0.875 24.5434 0.875 23.833V5.74967C0.875 5.03926 1.12795 4.4311 1.63385 3.9252C2.13976 3.41929 2.74792 3.16634 3.45833 3.16634H4.75V0.583008H7.33333V3.16634H17.6667V0.583008H20.25V3.16634H21.5417C22.2521 3.16634 22.8602 3.41929 23.3661 3.9252C23.872 4.4311 24.125 5.03926 24.125 5.74967V13.4997H21.5417V10.9163H3.45833V23.833H12.5V26.4163H3.45833ZM21.5417 28.9997C19.9701 28.9997 18.5977 28.5099 17.4245 27.5304C16.2512 26.5509 15.5139 25.3184 15.2125 23.833H17.2146C17.4944 24.7802 18.0273 25.5552 18.813 26.158C19.5988 26.7608 20.5083 27.0622 21.5417 27.0622C22.7903 27.0622 23.8559 26.6209 24.7385 25.7382C25.6212 24.8556 26.0625 23.79 26.0625 22.5413C26.0625 21.2927 25.6212 20.2271 24.7385 19.3445C23.8559 18.4618 22.7903 18.0205 21.5417 18.0205C20.9174 18.0205 20.3361 18.1335 19.7979 18.3596C19.2597 18.5856 18.7861 18.9031 18.3771 19.3122H20.25V21.2497H15.0833V16.083H17.0208V17.9236C17.6021 17.3639 18.2802 16.9172 19.0552 16.5835C19.8302 16.2498 20.659 16.083 21.5417 16.083C23.3285 16.083 24.8516 16.7127 26.1109 17.9721C27.3703 19.2314 28 20.7545 28 22.5413C28 24.3281 27.3703 25.8512 26.1109 27.1106C24.8516 28.37 23.3285 28.9997 21.5417 28.9997Z" fill="white"/>
</svg>
